# xmcd
#
# Track frame offsets:
#	150
#	9745
#	37064
#	68755
#	106539
#	133949
#	169585
#	205973
#	223134
#	237615
#	253363
#	268851
#	286279
#	290809
#	315127
#
# Disc length: 4440 seconds
#
# Revision: 1
# Processed by: cddbd v1.5.1PL0 Copyright (c) Steve Scherf et al.
# Submitted via: EasyCDDAExtractor 5.1.0
#
DISCID=ee11560f
DTITLE=Black Sabbath - Cirque Royal Brussels 16-04-77
DYEAR=1977
DGENRE=Hard Rock
TTITLE0=Supertzar 
TTITLE1=Symptom Of The Universe
TTITLE2=Snowblind
TTITLE3=War Pigs
TTITLE4=Gypsy
TTITLE5=Black Sabbath
TTITLE6=Dirty Women
TTITLE7=Drum Solo
TTITLE8=Rock and Roll Doctors
TTITLE9=Guitar Solo
TTITLE10=Electric Funeral
TTITLE11=Improvisation
TTITLE12=Bass Solo
TTITLE13=NIB
TTITLE14=Paranoid
EXTD=
EXTT0=
EXTT1=
EXTT2=
EXTT3=
EXTT4=
EXTT5=
EXTT6=
EXTT7=
EXTT8=
EXTT9=
EXTT10=
EXTT11=
EXTT12=
EXTT13=
EXTT14=
PLAYORDER=
